<?xml version="1.0"?>
<svg xmlns="http://www.w3.org/2000/svg" height="512px" viewBox="-66 0 512 512" width="512px"><g><path d="m191.144531 0h-.777343c-104.96875 0-190.367188 85.410156-190.367188 190.386719 0 57.558593 29.417969 102.449219 62.1875 147.148437l127.917969 174.464844 128.476562-174.464844c32.769531-44.699218 62.191407-89.589844 62.191407-147.140625 0-104.726562-85-189.972656-189.628907-190.394531zm103.238281 319.804688s-99.355468 135.875-103.867187 142.015624l-104.128906-142.027343c-30.859375-42.070313-56.386719-80.859375-56.386719-129.40625 0-88.199219 71.539062-159.988281 159.625-160.386719h.761719c88.4375 0 160.386719 71.949219 160.386719 160.394531 0 48.550781-25.53125 87.328125-56.390626 129.410157zm0 0" data-original="#000000" class="active-path" data-old_color="#000000" fill="#5C5C5C"/><path d="m190.386719 66.667969c-68.21875 0-123.726563 55.5-123.726563 123.71875 0 68.226562 55.507813 123.726562 123.726563 123.726562s123.726562-55.5 123.726562-123.726562c0-68.21875-55.507812-123.71875-123.726562-123.71875zm0 217.445312c-51.679688 0-93.730469-42.046875-93.730469-93.726562 0-51.679688 42.050781-93.71875 93.730469-93.71875 51.679687 0 93.726562 42.039062 93.726562 93.71875 0 51.679687-42.046875 93.726562-93.726562 93.726562zm0 0" data-original="#000000" class="active-path" data-old_color="#000000" fill="#5C5C5C"/><path d="m232.316406 143.667969-56.179687 55.566406-27.621094-27.617187-21.21875 21.210937 48.71875 48.71875 77.398437-76.550781zm0 0" data-original="#000000" class="active-path" data-old_color="#000000" fill="#5C5C5C"/></g> </svg>
